<?xml version="1.0" standalone="no"?>
<!DOCTYPE svg PUBLIC "-//W3C//DTD SVG 20010904//EN"
 "http://www.w3.org/TR/2001/REC-SVG-20010904/DTD/svg10.dtd">
<svg version="1.0" xmlns="http://www.w3.org/2000/svg"
 width="532.000000pt" height="532.000000pt" viewBox="0 0 532.000000 532.000000"
 preserveAspectRatio="xMidYMid meet">

<g transform="translate(0.000000,532.000000) scale(0.100000,-0.100000)"
fill="#000000" stroke="none">
<path d="M2614 4552 c3 -6 30 -18 59 -27 64 -21 113 -52 162 -102 42 -43 119
-156 130 -191 6 -20 -2 -17 -57 24 -70 52 -248 140 -348 172 -127 41 -235 55
-380 49 -203 -8 -365 -57 -545 -165 -199 -119 -455 -363 -567 -542 -83 -133
-186 -403 -222 -579 -28 -139 -40 -341 -23 -406 3 -11 6 -24 6 -28 1 -5 7 -7
14 -5 6 3 17 36 23 74 12 80 14 77 42 -71 31 -160 128 -460 154 -476 10 -7 9
-14 -5 -36 -74 -117 -103 -212 -94 -315 13 -154 141 -308 294 -354 63 -19 168
-19 223 0 54 19 60 19 60 5 0 -19 52 -129 61 -129 5 0 9 -6 9 -14 0 -20 73
-92 133 -130 124 -79 319 -151 514 -191 197 -40 567 -45 723 -11 245 55 449
118 559 173 72 37 198 135 239 188 12 15 50 59 84 97 35 39 64 74 66 78 2 4
17 1 34 -7 42 -21 156 -28 215 -14 155 38 261 142 319 311 26 76 26 242 0 327
l-19 61 31 99 c34 105 58 258 48 298 -4 14 -2 25 3 25 5 0 15 -25 22 -55 14
-64 24 -75 45 -49 31 39 -4 342 -66 569 -24 88 -113 288 -169 380 -164 269
-379 477 -607 585 -98 47 -225 88 -315 101 -77 11 -247 8 -314 -6 l-30 -7 40
36 c22 20 66 49 97 65 59 30 59 44 0 30 -44 -10 -126 -65 -192 -129 -39 -38
-55 -48 -61 -38 -5 7 -9 18 -9 25 0 25 -104 165 -160 215 -58 53 -114 80 -194
94 -26 5 -37 3 -32 -4z m238 -726 c31 -15 71 -43 88 -63 l32 -36 21 26 c61 72
199 95 290 48 182 -94 319 -344 528 -963 49 -147 50 -162 7 -122 -79 73 -146
110 -258 145 -104 33 -279 33 -358 1 -123 -51 -255 -159 -300 -248 -21 -41
-42 -154 -42 -225 l0 -41 -40 36 c-52 47 -78 50 -116 15 l-21 -20 -6 48 c-10
78 -26 119 -65 171 -119 159 -333 248 -577 240 -98 -3 -116 -6 -168 -32 -90
-46 -179 -147 -238 -270 -26 -56 -56 -127 -67 -158 -34 -103 -43 -38 -17 130
25 165 75 331 119 394 18 25 18 25 16 -57 -1 -68 12 -115 34 -115 9 0 53 78
114 203 216 437 379 672 560 805 131 96 203 123 322 119 68 -3 97 -9 142 -31z
m663 -1000 c20 -3 31 -7 109 -40 83 -35 203 -136 252 -211 10 -17 21 -32 24
-35 18 -17 54 -133 58 -190 11 -156 -99 -340 -272 -454 -200 -133 -405 -150
-565 -46 -190 121 -270 420 -185 691 24 77 31 89 92 149 122 119 207 152 372
145 52 -3 104 -6 115 -9z m-1258 -57 c174 -44 314 -152 359 -276 18 -51 17
-175 -1 -248 -27 -107 -72 -184 -154 -266 -82 -82 -165 -133 -282 -176 -65
-24 -89 -27 -204 -27 -105 -1 -140 3 -180 18 -115 44 -185 119 -217 234 -34
126 -7 279 82 460 66 133 137 221 218 268 77 45 232 51 379 13z m1812 -309
c10 0 36 7 57 16 51 21 122 13 180 -21 118 -69 183 -253 156 -438 -29 -198
-161 -337 -336 -354 -63 -6 -166 11 -166 27 0 4 -9 10 -19 13 -14 3 -39 -19
-102 -92 -150 -174 -219 -235 -332 -290 -148 -73 -427 -155 -616 -182 -76 -11
-457 -8 -501 4 -8 2 -37 7 -65 11 -224 32 -520 148 -623 245 -34 32 -66 78
-103 149 -52 100 -70 117 -96 91 -20 -20 -114 -36 -169 -28 -121 16 -240 105
-292 217 -22 47 -26 71 -27 142 0 79 3 90 40 165 68 137 198 249 313 271 21 4
49 0 76 -10 42 -16 44 -19 55 -76 7 -33 16 -62 20 -64 4 -3 6 -38 3 -78 -13
-208 78 -359 255 -424 70 -26 90 -29 198 -29 109 1 129 4 215 33 52 18 127 52
165 74 94 56 212 176 248 253 16 33 32 67 36 75 5 8 14 40 21 70 7 30 17 61
23 68 5 6 7 12 3 12 -7 0 19 33 49 61 19 19 20 19 67 -29 45 -46 49 -53 58
-123 25 -199 134 -367 282 -438 75 -35 128 -46 224 -44 279 4 571 236 634 502
8 33 10 83 7 130 -4 46 -2 91 6 115 l11 39 13 -31 c8 -20 20 -32 32 -32z"/>
<path d="M3213 3103 c-43 -8 -25 -30 30 -37 121 -14 188 -3 159 26 -11 11
-150 19 -189 11z"/>
<path d="M2141 3045 c-59 -15 -83 -31 -60 -40 8 -3 55 0 104 8 71 10 91 16 93
30 3 14 -4 17 -40 16 -24 -1 -67 -7 -97 -14z"/>
<path d="M3271 2392 c-6 -15 -9 -84 -8 -157 l2 -130 33 -3 c60 -6 64 5 58 155
-5 140 -11 157 -53 160 -14 1 -24 -7 -32 -25z"/>
<path d="M2154 2402 c-17 -11 -23 -54 -26 -184 -3 -135 2 -146 55 -129 19 7
37 18 40 24 6 16 6 210 0 260 -5 32 -9 37 -32 37 -14 0 -31 -4 -37 -8z"/>
<path d="M2702 1630 c-41 -10 -46 -15 -38 -35 5 -14 14 -15 49 -10 66 10 75
15 73 33 -3 20 -35 24 -84 12z"/>
</g>
</svg>
